<svg xmlns="http://www.w3.org/2000/svg" style="width:863px;height:825px" width="863" height="825" contentScriptType="application/ecmascript" contentStyleType="text/css" preserveAspectRatio="none" version="1.1" viewBox="0 0 863 825" zoomAndPan="magnify"><defs><filter id="f1d9d1t0fmknlj" width="300%" height="300%" x="-1" y="-1"><feGaussianBlur result="blurOut" stdDeviation="2"/><feColorMatrix in="blurOut" result="blurOut2" type="matrix" values="0 0 0 0 0 0 0 0 0 0 0 0 0 0 0 0 0 0 .4 0"/><feOffset dx="4" dy="4" in="blurOut2" result="blurOut3"/><feBlend in="SourceGraphic" in2="blurOut3" mode="normal"/></filter></defs><g><rect style="stroke:#000;stroke-width:2" width="808.5" height="191.174" x="33" y="200.731" fill="#FFF" filter="url(#f1d9d1t0fmknlj)"/><rect style="stroke:#000;stroke-width:2" width="555" height="122.553" x="23" y="449.215" fill="#FFF" filter="url(#f1d9d1t0fmknlj)"/><rect style="stroke:#000;stroke-width:2" width="535" height="91.242" x="33" y="473.525" fill="#FFF" filter="url(#f1d9d1t0fmknlj)"/><rect style="stroke:#000;stroke-width:2" width="575" height="138.553" x="13" y="629.078" fill="#FFF" filter="url(#f1d9d1t0fmknlj)"/><rect style="stroke:#000;stroke-width:2" width="555" height="107.242" x="23" y="653.389" fill="#FFF" filter="url(#f1d9d1t0fmknlj)"/><rect style="stroke:#000;stroke-width:2" width="535" height="46.621" x="33" y="707.01" fill="#FFF" filter="url(#f1d9d1t0fmknlj)"/><line style="stroke:#a80036;stroke-width:1;stroke-dasharray:5,5" x1="79" x2="79" y1="38.488" y2="784.631"/><line style="stroke:#a80036;stroke-width:1;stroke-dasharray:5,5" x1="337" x2="337" y1="38.488" y2="784.631"/><line style="stroke:#a80036;stroke-width:1;stroke-dasharray:5,5" x1="503" x2="503" y1="38.488" y2="784.631"/><rect style="stroke:#a80036;stroke-width:1.5" width="68" height="30.488" x="43" y="3" fill="#FEFECE" filter="url(#f1d9d1t0fmknlj)"/><text x="50" y="23.535" fill="#000" font-family="sans-serif" font-size="14" lengthAdjust="spacingAndGlyphs" textLength="54">Initiator</text><rect style="stroke:#a80036;stroke-width:1.5" width="68" height="30.488" x="43" y="783.631" fill="#FEFECE" filter="url(#f1d9d1t0fmknlj)"/><text x="50" y="804.166" fill="#000" font-family="sans-serif" font-size="14" lengthAdjust="spacingAndGlyphs" textLength="54">Initiator</text><rect style="stroke:#a80036;stroke-width:1.5" width="200" height="30.488" x="235" y="3" fill="#FEFECE" filter="url(#f1d9d1t0fmknlj)"/><text x="242" y="23.535" fill="#000" font-family="sans-serif" font-size="14" lengthAdjust="spacingAndGlyphs" textLength="186">Business Network Operator</text><rect style="stroke:#a80036;stroke-width:1.5" width="200" height="30.488" x="235" y="783.631" fill="#FEFECE" filter="url(#f1d9d1t0fmknlj)"/><text x="242" y="804.166" fill="#000" font-family="sans-serif" font-size="14" lengthAdjust="spacingAndGlyphs" textLength="186">Business Network Operator</text><rect style="stroke:#a80036;stroke-width:1.5" width="105" height="30.488" x="449" y="3" fill="#FEFECE" filter="url(#f1d9d1t0fmknlj)"/><text x="456" y="23.535" fill="#000" font-family="sans-serif" font-size="14" lengthAdjust="spacingAndGlyphs" textLength="91">Counterparty</text><rect style="stroke:#a80036;stroke-width:1.5" width="105" height="30.488" x="449" y="783.631" fill="#FEFECE" filter="url(#f1d9d1t0fmknlj)"/><text x="456" y="804.166" fill="#000" font-family="sans-serif" font-size="14" lengthAdjust="spacingAndGlyphs" textLength="91">Counterparty</text><rect style="stroke:#eee;stroke-width:1" width="848.5" height="3" x="3" y="69.144" fill="#EEE" filter="url(#f1d9d1t0fmknlj)"/><line style="stroke:#000;stroke-width:1" x1="3" x2="851.5" y1="69.144" y2="69.144"/><line style="stroke:#000;stroke-width:1" x1="3" x2="851.5" y1="72.144" y2="72.144"/><rect style="stroke:#000;stroke-width:2" width="171" height="23.311" x="341.75" y="58.488" fill="#EEE" filter="url(#f1d9d1t0fmknlj)"/><text x="347.75" y="75.057" fill="#000" font-family="sans-serif" font-size="13" font-weight="bold" lengthAdjust="spacingAndGlyphs" textLength="153">Get Memberships Flow</text><polygon fill="#A80036" points="325 108.799 335 112.799 325 116.799 329 112.799" style="stroke:#a80036;stroke-width:1"/><line style="stroke:#a80036;stroke-width:1" x1="79" x2="331" y1="112.799" y2="112.799"/><text x="86" y="108.367" fill="#000" font-family="sans-serif" font-size="13" lengthAdjust="spacingAndGlyphs" textLength="82">Get Members</text><polygon fill="#A80036" points="90 138.109 80 142.109 90 146.109 86 142.109" style="stroke:#a80036;stroke-width:1"/><line style="stroke:#a80036;stroke-width:1;stroke-dasharray:2,2" x1="84" x2="336" y1="142.109" y2="142.109"/><text x="96" y="137.678" fill="#000" font-family="sans-serif" font-size="13" lengthAdjust="spacingAndGlyphs" textLength="119">Set of BN members</text><rect style="stroke:#eee;stroke-width:1" width="848.5" height="3" x="3" y="171.075" fill="#EEE" filter="url(#f1d9d1t0fmknlj)"/><line style="stroke:#000;stroke-width:1" x1="3" x2="851.5" y1="171.075" y2="171.075"/><line style="stroke:#000;stroke-width:1" x1="3" x2="851.5" y1="174.075" y2="174.075"/><rect style="stroke:#000;stroke-width:2" width="247" height="23.311" x="303.75" y="160.42" fill="#EEE" filter="url(#f1d9d1t0fmknlj)"/><text x="309.75" y="176.988" fill="#000" font-family="sans-serif" font-size="13" font-weight="bold" lengthAdjust="spacingAndGlyphs" textLength="229">Evaluate Ledger Consistency Flow</text><path fill="#EEE" d="M33,200.7305 L107,200.7305 L107,207.7305 L97,217.7305 L33,217.7305 L33,200.7305" style="stroke:#000;stroke-width:1"/><rect style="stroke:#000;stroke-width:2" width="808.5" height="191.174" x="33" y="200.731" fill="none"/><text x="48" y="214.299" fill="#000" font-family="sans-serif" font-size="13" font-weight="bold" lengthAdjust="spacingAndGlyphs" textLength="29">loop</text><text x="122" y="213.365" fill="#000" font-family="sans-serif" font-size="11" font-weight="bold" lengthAdjust="spacingAndGlyphs" textLength="159">[for all node ∈ BN members]</text><line style="stroke:#a80036;stroke-width:1" x1="79" x2="121" y1="254.662" y2="254.662"/><line style="stroke:#a80036;stroke-width:1" x1="121" x2="121" y1="254.662" y2="267.662"/><line style="stroke:#a80036;stroke-width:1" x1="80" x2="121" y1="267.662" y2="267.662"/><polygon fill="#A80036" points="90 263.662 80 267.662 90 271.662 86 267.662" style="stroke:#a80036;stroke-width:1"/><text x="86" y="234.609" fill="#000" font-family="sans-serif" font-size="13" lengthAdjust="spacingAndGlyphs" textLength="211">Retrieve and hash transaction IDs</text><text x="118" y="249.92" fill="#000" font-family="sans-serif" font-size="13" lengthAdjust="spacingAndGlyphs" textLength="126">of transactions with</text><text x="248" y="249.92" fill="#000" font-family="sans-serif" font-size="13" font-style="italic" lengthAdjust="spacingAndGlyphs" textLength="82">Counterparty</text><polygon fill="#A80036" points="491.5 292.662 501.5 296.662 491.5 300.662 495.5 296.662" style="stroke:#a80036;stroke-width:1"/><line style="stroke:#a80036;stroke-width:1" x1="79" x2="497.5" y1="296.662" y2="296.662"/><text x="86" y="292.231" fill="#000" font-family="sans-serif" font-size="13" lengthAdjust="spacingAndGlyphs" textLength="202">Compound hash of transactions</text><line style="stroke:#a80036;stroke-width:1" x1="503.5" x2="545.5" y1="341.594" y2="341.594"/><line style="stroke:#a80036;stroke-width:1" x1="545.5" x2="545.5" y1="341.594" y2="354.594"/><line style="stroke:#a80036;stroke-width:1" x1="504.5" x2="545.5" y1="354.594" y2="354.594"/><polygon fill="#A80036" points="514.5 350.594 504.5 354.594 514.5 358.594 510.5 354.594" style="stroke:#a80036;stroke-width:1"/><text x="510.5" y="321.541" fill="#000" font-family="sans-serif" font-size="13" lengthAdjust="spacingAndGlyphs" textLength="287">Retrieve, hash transaction IDs of transactions</text><text x="542.5" y="336.852" fill="#000" font-family="sans-serif" font-size="13" lengthAdjust="spacingAndGlyphs" textLength="27">with</text><text x="573.5" y="336.852" fill="#000" font-family="sans-serif" font-size="13" font-style="italic" lengthAdjust="spacingAndGlyphs" textLength="50">Initiator</text><text x="627.5" y="336.852" fill="#000" font-family="sans-serif" font-size="13" lengthAdjust="spacingAndGlyphs" textLength="202">and compare with hash received</text><polygon fill="#A80036" points="90 379.594 80 383.594 90 387.594 86 383.594" style="stroke:#a80036;stroke-width:1"/><line style="stroke:#a80036;stroke-width:1;stroke-dasharray:2,2" x1="84" x2="502.5" y1="383.594" y2="383.594"/><text x="96" y="379.162" fill="#000" font-family="sans-serif" font-size="13" lengthAdjust="spacingAndGlyphs" textLength="114">Do hashes match?</text><rect style="stroke:#eee;stroke-width:1" width="848.5" height="3" x="3" y="419.56" fill="#EEE" filter="url(#f1d9d1t0fmknlj)"/><line style="stroke:#000;stroke-width:1" x1="3" x2="851.5" y1="419.56" y2="419.56"/><line style="stroke:#000;stroke-width:1" x1="3" x2="851.5" y1="422.56" y2="422.56"/><rect style="stroke:#000;stroke-width:2" width="194" height="23.311" x="330.25" y="408.904" fill="#EEE" filter="url(#f1d9d1t0fmknlj)"/><text x="336.25" y="425.473" fill="#000" font-family="sans-serif" font-size="13" font-weight="bold" lengthAdjust="spacingAndGlyphs" textLength="176">Request Ledger Sync Flow</text><path fill="#EEE" d="M23,449.2148 L97,449.2148 L97,456.2148 L87,466.2148 L23,466.2148 L23,449.2148" style="stroke:#000;stroke-width:1"/><rect style="stroke:#000;stroke-width:2" width="555" height="122.553" x="23" y="449.215" fill="none"/><text x="38" y="462.783" fill="#000" font-family="sans-serif" font-size="13" font-weight="bold" lengthAdjust="spacingAndGlyphs" textLength="29">loop</text><text x="112" y="461.85" fill="#000" font-family="sans-serif" font-size="11" font-weight="bold" lengthAdjust="spacingAndGlyphs" textLength="158">[for all node ∈ BN Members]</text><path fill="#EEE" d="M33,473.5254 L95,473.5254 L95,480.5254 L85,490.5254 L33,490.5254 L33,473.5254" style="stroke:#000;stroke-width:1"/><rect style="stroke:#000;stroke-width:2" width="535" height="91.242" x="33" y="473.525" fill="none"/><text x="48" y="487.094" fill="#000" font-family="sans-serif" font-size="13" font-weight="bold" lengthAdjust="spacingAndGlyphs" textLength="17">alt</text><text x="110" y="486.16" fill="#000" font-family="sans-serif" font-size="11" font-weight="bold" lengthAdjust="spacingAndGlyphs" textLength="127">[hash_match == false]</text><polygon fill="#A80036" points="491.5 507.836 501.5 511.836 491.5 515.836 495.5 511.836" style="stroke:#a80036;stroke-width:1"/><line style="stroke:#a80036;stroke-width:1" x1="79" x2="497.5" y1="511.836" y2="511.836"/><text x="86" y="507.404" fill="#000" font-family="sans-serif" font-size="13" lengthAdjust="spacingAndGlyphs" textLength="191">Set of IDs of transactions with</text><text x="281" y="507.404" fill="#000" font-family="sans-serif" font-size="13" font-style="italic" lengthAdjust="spacingAndGlyphs" textLength="82">Counterparty</text><polygon fill="#A80036" points="90 552.146 80 556.146 90 560.146 86 556.146" style="stroke:#a80036;stroke-width:1"/><line style="stroke:#a80036;stroke-width:1;stroke-dasharray:2,2" x1="84" x2="502.5" y1="556.146" y2="556.146"/><text x="96" y="536.715" fill="#000" font-family="sans-serif" font-size="13" lengthAdjust="spacingAndGlyphs" textLength="292">Set of findings, indicating missing transaction</text><text x="144" y="552.025" fill="#000" font-family="sans-serif" font-size="13" lengthAdjust="spacingAndGlyphs" textLength="73">both on the</text><text x="221" y="552.025" fill="#000" font-family="sans-serif" font-size="13" font-style="italic" lengthAdjust="spacingAndGlyphs" textLength="55">Inititator</text><text x="280" y="552.025" fill="#000" font-family="sans-serif" font-size="13" lengthAdjust="spacingAndGlyphs" textLength="23">and</text><text x="307" y="552.025" fill="#000" font-family="sans-serif" font-size="13" font-style="italic" lengthAdjust="spacingAndGlyphs" textLength="82">Counterparty</text><text x="393" y="552.025" fill="#000" font-family="sans-serif" font-size="13" lengthAdjust="spacingAndGlyphs" textLength="26">side</text><rect style="stroke:#eee;stroke-width:1" width="848.5" height="3" x="3" y="599.423" fill="#EEE" filter="url(#f1d9d1t0fmknlj)"/><line style="stroke:#000;stroke-width:1" x1="3" x2="851.5" y1="599.423" y2="599.423"/><line style="stroke:#000;stroke-width:1" x1="3" x2="851.5" y1="602.423" y2="602.423"/><rect style="stroke:#000;stroke-width:2" width="198" height="23.311" x="328.25" y="588.768" fill="#EEE" filter="url(#f1d9d1t0fmknlj)"/><text x="334.25" y="605.336" fill="#000" font-family="sans-serif" font-size="13" font-weight="bold" lengthAdjust="spacingAndGlyphs" textLength="180">Transaction Recovery Flow</text><path fill="#EEE" d="M13,629.0781 L87,629.0781 L87,636.0781 L77,646.0781 L13,646.0781 L13,629.0781" style="stroke:#000;stroke-width:1"/><rect style="stroke:#000;stroke-width:2" width="575" height="138.553" x="13" y="629.078" fill="none"/><text x="28" y="642.646" fill="#000" font-family="sans-serif" font-size="13" font-weight="bold" lengthAdjust="spacingAndGlyphs" textLength="29">loop</text><text x="102" y="641.713" fill="#000" font-family="sans-serif" font-size="11" font-weight="bold" lengthAdjust="spacingAndGlyphs" textLength="149">[for all finding ∈ findings]</text><path fill="#EEE" d="M23,653.3887 L85,653.3887 L85,660.3887 L75,670.3887 L23,670.3887 L23,653.3887" style="stroke:#000;stroke-width:1"/><rect style="stroke:#000;stroke-width:2" width="555" height="107.242" x="23" y="653.389" fill="none"/><text x="38" y="666.957" fill="#000" font-family="sans-serif" font-size="13" font-weight="bold" lengthAdjust="spacingAndGlyphs" textLength="17">alt</text><text x="100" y="666.023" fill="#000" font-family="sans-serif" font-size="11" font-weight="bold" lengthAdjust="spacingAndGlyphs" textLength="196">[contains recoverable transactions]</text><polygon fill="#A80036" points="491.5 687.699 501.5 691.699 491.5 695.699 495.5 691.699" style="stroke:#a80036;stroke-width:1"/><line style="stroke:#a80036;stroke-width:1" x1="79" x2="497.5" y1="691.699" y2="691.699"/><text x="86" y="687.268" fill="#000" font-family="sans-serif" font-size="13" lengthAdjust="spacingAndGlyphs" textLength="267">Set of IDs of recoverable transactions with</text><text x="357" y="687.268" fill="#000" font-family="sans-serif" font-size="13" font-style="italic" lengthAdjust="spacingAndGlyphs" textLength="82">Counterparty</text><path fill="#EEE" d="M33,707.0098 L107,707.0098 L107,714.0098 L97,724.0098 L33,724.0098 L33,707.0098" style="stroke:#000;stroke-width:1"/><rect style="stroke:#000;stroke-width:2" width="535" height="46.621" x="33" y="707.01" fill="none"/><text x="48" y="720.578" fill="#000" font-family="sans-serif" font-size="13" font-weight="bold" lengthAdjust="spacingAndGlyphs" textLength="29">loop</text><text x="122" y="719.644" fill="#000" font-family="sans-serif" font-size="11" font-weight="bold" lengthAdjust="spacingAndGlyphs" textLength="208">[for all id ∈ relevant_transaction_ids]</text><polygon fill="#A80036" points="90 741.32 80 745.32 90 749.32 86 745.32" style="stroke:#a80036;stroke-width:1"/><line style="stroke:#a80036;stroke-width:1;stroke-dasharray:2,2" x1="84" x2="502.5" y1="745.32" y2="745.32"/><text x="96" y="740.889" fill="#000" font-family="sans-serif" font-size="13" lengthAdjust="spacingAndGlyphs" textLength="74">Transaction</text></g></svg>